<mxfile host="Electron" agent="Mozilla/5.0 (Windows NT 10.0; Win64; x64) AppleWebKit/537.36 (KHTML, like Gecko) draw.io/26.0.4 Chrome/128.0.6613.186 Electron/32.2.5 Safari/537.36" version="26.0.4">
  <diagram name="Page-1" id="M11lJGLVmloD2z-hkk2x">
    <mxGraphModel dx="1434" dy="836" grid="1" gridSize="10" guides="1" tooltips="1" connect="1" arrows="1" fold="1" page="1" pageScale="1" pageWidth="850" pageHeight="1100" math="0" shadow="0">
      <root>
        <mxCell id="0" />
        <mxCell id="1" parent="0" />
        <mxCell id="wmh6ob5AP-VEyRLtXecg-4" value="" style="edgeStyle=orthogonalEdgeStyle;rounded=0;orthogonalLoop=1;jettySize=auto;html=1;" edge="1" parent="1" source="wmh6ob5AP-VEyRLtXecg-1" target="wmh6ob5AP-VEyRLtXecg-3">
          <mxGeometry relative="1" as="geometry" />
        </mxCell>
        <mxCell id="wmh6ob5AP-VEyRLtXecg-6" value="" style="edgeStyle=orthogonalEdgeStyle;rounded=0;orthogonalLoop=1;jettySize=auto;html=1;" edge="1" parent="1" source="wmh6ob5AP-VEyRLtXecg-1" target="wmh6ob5AP-VEyRLtXecg-5">
          <mxGeometry relative="1" as="geometry" />
        </mxCell>
        <mxCell id="wmh6ob5AP-VEyRLtXecg-8" value="" style="edgeStyle=orthogonalEdgeStyle;rounded=0;orthogonalLoop=1;jettySize=auto;html=1;" edge="1" parent="1" source="wmh6ob5AP-VEyRLtXecg-1" target="wmh6ob5AP-VEyRLtXecg-7">
          <mxGeometry relative="1" as="geometry" />
        </mxCell>
        <mxCell id="wmh6ob5AP-VEyRLtXecg-10" value="" style="edgeStyle=orthogonalEdgeStyle;rounded=0;orthogonalLoop=1;jettySize=auto;html=1;" edge="1" parent="1" source="wmh6ob5AP-VEyRLtXecg-1" target="wmh6ob5AP-VEyRLtXecg-9">
          <mxGeometry relative="1" as="geometry" />
        </mxCell>
        <mxCell id="wmh6ob5AP-VEyRLtXecg-1" value="&lt;font style=&quot;color: rgb(0, 0, 0);&quot;&gt;v&lt;/font&gt;" style="ellipse;whiteSpace=wrap;html=1;aspect=fixed;fillColor=#3333FF;" vertex="1" parent="1">
          <mxGeometry x="385" y="310" width="80" height="80" as="geometry" />
        </mxCell>
        <mxCell id="wmh6ob5AP-VEyRLtXecg-3" value="A" style="ellipse;whiteSpace=wrap;html=1;aspect=fixed;fillColor=#CC0000;" vertex="1" parent="1">
          <mxGeometry x="385" y="150" width="80" height="80" as="geometry" />
        </mxCell>
        <mxCell id="wmh6ob5AP-VEyRLtXecg-5" value="B" style="ellipse;whiteSpace=wrap;html=1;aspect=fixed;gradientColor=none;fillStyle=auto;fillColor=#4D9900;" vertex="1" parent="1">
          <mxGeometry x="545" y="310" width="80" height="80" as="geometry" />
        </mxCell>
        <mxCell id="wmh6ob5AP-VEyRLtXecg-7" value="D" style="ellipse;whiteSpace=wrap;html=1;aspect=fixed;fillColor=#4D9900;" vertex="1" parent="1">
          <mxGeometry x="385" y="470" width="80" height="80" as="geometry" />
        </mxCell>
        <mxCell id="wmh6ob5AP-VEyRLtXecg-9" value="E" style="ellipse;whiteSpace=wrap;html=1;aspect=fixed;fillColor=#FF9933;" vertex="1" parent="1">
          <mxGeometry x="225" y="310" width="80" height="80" as="geometry" />
        </mxCell>
        <mxCell id="wmh6ob5AP-VEyRLtXecg-11" value="" style="rounded=0;orthogonalLoop=1;jettySize=auto;html=1;exitX=1;exitY=1;exitDx=0;exitDy=0;" edge="1" target="wmh6ob5AP-VEyRLtXecg-12" parent="1" source="wmh6ob5AP-VEyRLtXecg-1">
          <mxGeometry relative="1" as="geometry">
            <mxPoint x="490" y="440" as="sourcePoint" />
          </mxGeometry>
        </mxCell>
        <mxCell id="wmh6ob5AP-VEyRLtXecg-12" value="C" style="ellipse;whiteSpace=wrap;html=1;aspect=fixed;gradientColor=none;fillStyle=auto;fillColor=#FF66FF;" vertex="1" parent="1">
          <mxGeometry x="560" y="500" width="80" height="80" as="geometry" />
        </mxCell>
        <mxCell id="wmh6ob5AP-VEyRLtXecg-13" value="" style="endArrow=classic;html=1;rounded=0;exitX=0.938;exitY=0.375;exitDx=0;exitDy=0;exitPerimeter=0;edgeStyle=orthogonalEdgeStyle;curved=1;" edge="1" parent="1" source="wmh6ob5AP-VEyRLtXecg-3">
          <mxGeometry width="50" height="50" relative="1" as="geometry">
            <mxPoint x="520" y="170" as="sourcePoint" />
            <mxPoint x="570" y="220" as="targetPoint" />
          </mxGeometry>
        </mxCell>
        <mxCell id="wmh6ob5AP-VEyRLtXecg-14" value="" style="ellipse;whiteSpace=wrap;html=1;aspect=fixed;gradientColor=none;fillStyle=auto;fillColor=#FF66FF;" vertex="1" parent="1">
          <mxGeometry x="570" y="200" width="40" height="40" as="geometry" />
        </mxCell>
        <mxCell id="wmh6ob5AP-VEyRLtXecg-15" value="" style="ellipse;whiteSpace=wrap;html=1;aspect=fixed;gradientColor=none;fillStyle=auto;fillColor=#FF0000;" vertex="1" parent="1">
          <mxGeometry x="700" y="260" width="40" height="40" as="geometry" />
        </mxCell>
        <mxCell id="wmh6ob5AP-VEyRLtXecg-16" value="" style="endArrow=classic;html=1;rounded=0;exitX=0.938;exitY=0.375;exitDx=0;exitDy=0;exitPerimeter=0;edgeStyle=orthogonalEdgeStyle;curved=1;" edge="1" parent="1">
          <mxGeometry width="50" height="50" relative="1" as="geometry">
            <mxPoint x="610" y="220" as="sourcePoint" />
            <mxPoint x="720" y="260" as="targetPoint" />
          </mxGeometry>
        </mxCell>
        <mxCell id="wmh6ob5AP-VEyRLtXecg-17" value="" style="ellipse;whiteSpace=wrap;html=1;aspect=fixed;gradientColor=none;fillStyle=auto;fillColor=#FF66FF;" vertex="1" parent="1">
          <mxGeometry x="720" y="350" width="40" height="40" as="geometry" />
        </mxCell>
        <mxCell id="wmh6ob5AP-VEyRLtXecg-18" value="" style="endArrow=classic;html=1;rounded=0;edgeStyle=orthogonalEdgeStyle;curved=1;exitX=1;exitY=0.5;exitDx=0;exitDy=0;" edge="1" parent="1" source="wmh6ob5AP-VEyRLtXecg-12">
          <mxGeometry width="50" height="50" relative="1" as="geometry">
            <mxPoint x="640" y="520" as="sourcePoint" />
            <mxPoint x="750" y="480" as="targetPoint" />
          </mxGeometry>
        </mxCell>
        <mxCell id="wmh6ob5AP-VEyRLtXecg-20" value="" style="endArrow=classic;html=1;rounded=0;exitX=0.938;exitY=0.375;exitDx=0;exitDy=0;exitPerimeter=0;edgeStyle=orthogonalEdgeStyle;curved=1;entryX=1;entryY=0;entryDx=0;entryDy=0;" edge="1" parent="1" target="wmh6ob5AP-VEyRLtXecg-17">
          <mxGeometry width="50" height="50" relative="1" as="geometry">
            <mxPoint x="740" y="280" as="sourcePoint" />
            <mxPoint x="850" y="320" as="targetPoint" />
          </mxGeometry>
        </mxCell>
        <mxCell id="wmh6ob5AP-VEyRLtXecg-21" value="" style="ellipse;whiteSpace=wrap;html=1;aspect=fixed;gradientColor=none;fillStyle=auto;fillColor=#FF0000;" vertex="1" parent="1">
          <mxGeometry x="730" y="440" width="40" height="40" as="geometry" />
        </mxCell>
        <mxCell id="wmh6ob5AP-VEyRLtXecg-22" value="" style="endArrow=classic;html=1;rounded=0;edgeStyle=orthogonalEdgeStyle;curved=1;exitX=0.5;exitY=0;exitDx=0;exitDy=0;entryX=1;entryY=1;entryDx=0;entryDy=0;" edge="1" parent="1" source="wmh6ob5AP-VEyRLtXecg-21" target="wmh6ob5AP-VEyRLtXecg-17">
          <mxGeometry width="50" height="50" relative="1" as="geometry">
            <mxPoint x="710" y="420" as="sourcePoint" />
            <mxPoint x="820" y="360" as="targetPoint" />
          </mxGeometry>
        </mxCell>
      </root>
    </mxGraphModel>
  </diagram>
</mxfile>
